<svg xmlns="http://www.w3.org/2000/svg" xmlns:xlink="http://www.w3.org/1999/xlink" width="74" height="74" viewBox="0 0 74 74">
  <defs>
    <clipPath id="clip-path">
      <rect id="Retângulo_12138" data-name="Retângulo 12138" width="74" height="74" transform="translate(387 3395)" fill="#fff"/>
    </clipPath>
  </defs>
  <g id="pessoas-apex" transform="translate(-387 -3395)" clip-path="url(#clip-path)">
    <path id="Caminho_122991" data-name="Caminho 122991" d="M42.878,27.223a11.6,11.6,0,1,1,11.6,11.6,11.614,11.614,0,0,1-11.6-11.6ZM26.127,42.686A10.309,10.309,0,1,0,15.819,32.377,10.322,10.322,0,0,0,26.127,42.686Zm33.548,1.289h-10.4A16.713,16.713,0,0,0,32.571,60.681V71.035a1.292,1.292,0,0,0,1.289,1.289H75.094a1.292,1.292,0,0,0,1.289-1.289V60.681A16.724,16.724,0,0,0,59.676,43.974Zm-28.9,3.917L22.21,47.84A12.852,12.852,0,0,0,9.376,60.674v10.36a1.292,1.292,0,0,0,1.289,1.289H26.9a1.292,1.292,0,0,0,1.289-1.289V60.68a17.056,17.056,0,0,1,3.6-10.708,1.288,1.288,0,0,0,.142-1.353,1.313,1.313,0,0,0-1.153-.728Z" transform="translate(381.121 3384.4)" fill="#31513c"/>
  </g>
</svg>
