<svg xmlns="http://www.w3.org/2000/svg" xmlns:xlink="http://www.w3.org/1999/xlink" width="74" height="74" viewBox="0 0 74 74">
  <defs>
    <clipPath id="clip-path">
      <rect id="Retângulo_12139" data-name="Retângulo 12139" width="74" height="74" transform="translate(387 3395)" fill="#fff"/>
    </clipPath>
  </defs>
  <g id="prazos-apex" transform="translate(-387 -3395)" clip-path="url(#clip-path)">
    <path id="Caminho_122992" data-name="Caminho 122992" d="M27.1,1.447a.088.088,0,0,1,.1-.073H42.154a.088.088,0,0,1,.1.073l2.132,6.564a29.941,29.941,0,0,0-19.417,0Zm7.577,62.361A27.52,27.52,0,1,1,54.1,55.748a27.484,27.484,0,0,1-19.431,8.06Zm0-50.8v0a23.3,23.3,0,1,0,17.019,39.2c.033-.028.063-.055.1-.085a1.322,1.322,0,0,0,.13-.158A23.293,23.293,0,0,0,34.673,13.014ZM13.866,37.964a20.791,20.791,0,0,0,5.771,12.813l.6-.6a1.217,1.217,0,0,1,1.72,1.72l-.534.534a20.77,20.77,0,0,0,13.044,4.753V56.66a1.216,1.216,0,0,1,2.433,0v.409a20.8,20.8,0,0,0,12.309-5.791l-.268-.271a1.217,1.217,0,0,1,1.72-1.72l.2.193h0a20.764,20.764,0,0,0,4.68-12.53h-.371a1.216,1.216,0,0,1,0-2.433h.3A20.8,20.8,0,0,0,50.124,22.3l-.567.567a1.216,1.216,0,1,1-1.72-1.718l.549-.552a20.784,20.784,0,0,0-12.5-5.116v.341a1.216,1.216,0,0,1-2.433,0v-.341a20.79,20.79,0,0,0-12.72,5.314l.5.5h0a1.217,1.217,0,1,1-1.72,1.72l-.5-.5a20.776,20.776,0,0,0-5.209,13.006h.943a1.216,1.216,0,1,1,0,2.433Zm21.31,2.25,0,0a3.974,3.974,0,0,0,3.78-2.754H46.55a1.216,1.216,0,0,0,0-2.433H38.958a3.987,3.987,0,0,0-2.566-2.563V21.684a1.215,1.215,0,1,0-2.43,0V32.461a3.97,3.97,0,0,0,1.216,7.75Zm0-5.507,0,0a1.539,1.539,0,1,0,1.537,1.537A1.535,1.535,0,0,0,35.179,34.7Z" transform="translate(389.328 3397.903)" fill="#31513c" fill-rule="evenodd"/>
  </g>
</svg>
