<svg xmlns="http://www.w3.org/2000/svg" xmlns:xlink="http://www.w3.org/1999/xlink" width="74" height="74" viewBox="0 0 74 74">
  <defs>
    <clipPath id="clip-path">
      <rect id="Retângulo_12137" data-name="Retângulo 12137" width="74" height="74" transform="translate(387 3395)" fill="#fff"/>
    </clipPath>
  </defs>
  <g id="qualidade-apex" transform="translate(-387 -3395)" clip-path="url(#clip-path)">
    <path id="Caminho_122990" data-name="Caminho 122990" d="M33.348,57.566a6.245,6.245,0,0,1,1.336.583l-5.38,13.2-2.247-7.78a.958.958,0,0,0-1.185-.652.926.926,0,0,0-.206.086h0l-7.041,4,5.139-12.621A6.073,6.073,0,0,0,25.9,56.727a8.136,8.136,0,0,0,4.551.686,10.174,10.174,0,0,1,2.9.153Zm21.613-.84a8.149,8.149,0,0,1-4.551.686,10.179,10.179,0,0,0-2.9.154,6.213,6.213,0,0,0-1.336.584l5.372,13.2,2.248-7.78a.958.958,0,0,1,1.185-.652.931.931,0,0,1,.206.086h0l7.041,4L57.088,54.382a6.076,6.076,0,0,1-2.13,2.345ZM67.3,31.871A7.328,7.328,0,0,1,65.811,35.4a11.785,11.785,0,0,0-1.535,3.054,11.474,11.474,0,0,0-.221,3.465,6.865,6.865,0,0,1-.423,3.516A6.749,6.749,0,0,1,60.788,47.5a10.972,10.972,0,0,0-2.875,1.856,10.985,10.985,0,0,0-1.856,2.875,6.791,6.791,0,0,1-2.064,2.844,6.886,6.886,0,0,1-3.516.424,11.449,11.449,0,0,0-3.465.221,9.768,9.768,0,0,0-2.487,1.18,1,1,0,0,0-.1.063q-.233.144-.467.295a7.352,7.352,0,0,1-3.531,1.494A7.325,7.325,0,0,1,36.9,57.26l-.468-.295a1.041,1.041,0,0,0-.1-.062,9.768,9.768,0,0,0-2.487-1.18,11.471,11.471,0,0,0-3.465-.221,6.882,6.882,0,0,1-3.516-.423A6.742,6.742,0,0,1,24.8,52.235a10.989,10.989,0,0,0-1.856-2.875A10.981,10.981,0,0,0,20.069,47.5a6.785,6.785,0,0,1-2.844-2.064,6.89,6.89,0,0,1-.423-3.517,11.474,11.474,0,0,0-.221-3.465A11.769,11.769,0,0,0,15.047,35.4a7.33,7.33,0,0,1-1.486-3.525,7.323,7.323,0,0,1,1.486-3.525A11.785,11.785,0,0,0,16.582,25.3a11.474,11.474,0,0,0,.221-3.469,6.865,6.865,0,0,1,.423-3.516,6.749,6.749,0,0,1,2.844-2.064,10.956,10.956,0,0,0,2.875-1.856A10.968,10.968,0,0,0,24.8,11.519a6.781,6.781,0,0,1,2.064-2.844,6.894,6.894,0,0,1,3.516-.424,11.447,11.447,0,0,0,3.465-.221A11.738,11.738,0,0,0,36.9,6.5,7.264,7.264,0,0,1,40.426,5,7.328,7.328,0,0,1,43.95,6.486,11.766,11.766,0,0,0,47,8.023a11.471,11.471,0,0,0,3.465.221,6.875,6.875,0,0,1,3.516.423,6.741,6.741,0,0,1,2.064,2.844,10.989,10.989,0,0,0,1.856,2.875,10.981,10.981,0,0,0,2.875,1.856,6.785,6.785,0,0,1,2.844,2.064,6.889,6.889,0,0,1,.423,3.516,11.477,11.477,0,0,0,.221,3.47A11.785,11.785,0,0,0,65.8,28.347,7.278,7.278,0,0,1,67.3,31.871Zm-9.665,0A17.2,17.2,0,1,0,52.59,44.037a17.2,17.2,0,0,0,5.041-12.166Zm-6.22-4.806-7.486-.479-2.768-6.969a.958.958,0,0,0-1.778,0l-2.768,6.969-7.452.477a.958.958,0,0,0-.585,1.7l5.772,4.785-1.858,7.268h0a.958.958,0,0,0,1.437,1.051l6.34-4.014,6.28,3.975a.958.958,0,0,0,1.5-1.009l-1.858-7.268,5.773-4.786h0a.958.958,0,0,0-.551-1.7Z" transform="translate(383.571 3394.824)" fill="#31513c"/>
  </g>
</svg>
