<svg xmlns="http://www.w3.org/2000/svg" xmlns:xlink="http://www.w3.org/1999/xlink" width="74" height="74" viewBox="0 0 74 74">
  <defs>
    <clipPath id="clip-path">
      <rect id="Retângulo_12135" data-name="Retângulo 12135" width="74" height="74" transform="translate(387 3395)" fill="#fff"/>
    </clipPath>
  </defs>
  <g id="segurança-apex" transform="translate(-387 -3395)" clip-path="url(#clip-path)">
    <path id="Caminho_122985" data-name="Caminho 122985" d="M237.342,115.642c0-1.349.053-2.714,0-4.063v-.046a1.567,1.567,0,0,0-1.121-1.471l-7.921-2.744q-6.244-2.161-12.479-4.33c-.922-.32-1.837-.686-2.775-.961a1.756,1.756,0,0,0-1.189.107c-.473.168-.953.328-1.426.5l-11.953,4.139q-4.677,1.624-9.346,3.24c-.053.015-.1.038-.152.053a1.575,1.575,0,0,0-1.121,1.471v14.126c0,2.973-.008,5.946,0,8.919a22.691,22.691,0,0,0,1.288,7.44,33.494,33.494,0,0,0,8.546,12.8,47.293,47.293,0,0,0,12.563,8.691q.789.366,1.578.709c.031.015.069.031.1.046h.008c.076.03.16.061.236.084a1.822,1.822,0,0,0,1.174-.122.027.027,0,0,0,.015-.008,47.15,47.15,0,0,0,12.746-8.111,35.163,35.163,0,0,0,9.186-12.19,24.679,24.679,0,0,0,1.952-7.585c.122-1.41.076-2.836.076-4.254V115.642ZM226.136,125l-1.9,1.9-8.226,8.226-5.2,5.2a2.315,2.315,0,0,1-3.232,0l-1.052-1.052-7.372-7.372a2.286,2.286,0,0,1,3.232-3.232c.351.351.7.709,1.052,1.06,1.913,1.913,3.827,3.842,5.74,5.756l.29-.29q4.117-4.117,8.226-8.233l5.2-5.2a2.291,2.291,0,0,1,3.24,3.24Z" transform="translate(211.389 3297.314)" fill="#31513c"/>
  </g>
</svg>
