<svg xmlns="http://www.w3.org/2000/svg" xmlns:xlink="http://www.w3.org/1999/xlink" width="74" height="74" viewBox="0 0 74 74">
  <defs>
    <clipPath id="clip-path">
      <rect id="Retângulo_12136" data-name="Retângulo 12136" width="74" height="74" transform="translate(387 3395)" fill="#fff"/>
    </clipPath>
  </defs>
  <g id="sustentabilidade-apex" transform="translate(-387 -3395)" clip-path="url(#clip-path)">
    <g id="Grupo_88322" data-name="Grupo 88322" transform="translate(-20 -5)">
      <path id="Caminho_122986" data-name="Caminho 122986" d="M56.121,17.715a24.207,24.207,0,0,0-5.473.806,20.771,20.771,0,0,0-9.773,5.4,17.4,17.4,0,0,0-4.337,8.173,19.671,19.671,0,0,0-.428,2.346h1.222c12.583-.171,18.9-.269,25.068-11.776,3.274-6.108,11.508-8.918,11.593-8.955a1.17,1.17,0,0,0-.061-2.236C62.191,7.344,53.884,7.808,53.567,7.808c-6.511.183-11.532,2.333-14.94,6.4-5.51,6.585-4.887,16.052-4.679,18.582a21.149,21.149,0,0,1,2.443-6.817,18.311,18.311,0,0,1,2.749-3.7c6.621-6.866,16.492-6.951,16.957-6.915a1.179,1.179,0,1,1,.024,2.358Z" transform="translate(395.532 3393.7)" fill="#31513c"/>
      <path id="Caminho_122987" data-name="Caminho 122987" d="M35.1,41.441a1.222,1.222,0,0,1-1.161-1,2.714,2.714,0,0,0-.086-.611,30,30,0,0,0-.428,6.572,1.174,1.174,0,1,0,2.346-.086,27.514,27.514,0,0,1,.208-4.887H35.09Z" transform="translate(395.623 3386.711)" fill="#31513c"/>
      <path id="Caminho_122988" data-name="Caminho 122988" d="M74.286,50.717a4.349,4.349,0,0,0-5.864-.4L60.53,56.678a5.846,5.846,0,0,1,.574,2.529,6.189,6.189,0,0,1-.745,2.944,5.985,5.985,0,0,1-5.18,3.03H46.115V63.41h9.028a4.189,4.189,0,0,0,3.763-2.37,4.024,4.024,0,0,0,.415-1.8,4.206,4.206,0,0,0-.183-1.4,4.028,4.028,0,0,0-.928-1.515A4.126,4.126,0,0,0,55.216,55l-7.464-.073a5.009,5.009,0,0,1-2.1-.489,10.8,10.8,0,0,0-4.74-1.075H36.048a12.711,12.711,0,0,0-8.674,3.408l-2.688,2.5a5.144,5.144,0,0,1,.757,1l.562.99.892,1.576,5.363,9.309.88,1.552.476.831a4.837,4.837,0,0,1,.513,1.295,14.8,14.8,0,0,1,7.513-2.04H54.006a13.171,13.171,0,0,0,10.249-4.887L74.493,56.4a4.312,4.312,0,0,0-.208-5.681Z" transform="translate(397.524 3384.631)" fill="#31513c"/>
      <path id="Caminho_122989" data-name="Caminho 122989" d="M28.483,77.512l-.88-1.588L22.448,66.9l-.892-1.576-.77-1.344a2.887,2.887,0,0,0-.513-.684,3.111,3.111,0,0,0-1.4-.806,1.081,1.081,0,0,0-.281,0,3.015,3.015,0,0,0-2.126.391l-4.593,2.785a3.116,3.116,0,0,0-1.051,4.227l8.209,14.245A3.084,3.084,0,0,0,20.97,85.6a3.384,3.384,0,0,0,.782.1,3.145,3.145,0,0,0,1.625-.464l4.5-2.761a3.237,3.237,0,0,0,1.417-1.93,3.839,3.839,0,0,0,.086-.721,3.063,3.063,0,0,0-.415-1.539Z" transform="translate(400.643 3381.779)" fill="#31513c"/>
    </g>
  </g>
</svg>
