<svg xmlns="http://www.w3.org/2000/svg" width="32" height="32" viewBox="0 0 32 32">
  <g id="btn-social-instagram" transform="translate(-4337 22286)">
    <rect id="Retângulo_4709" data-name="Retângulo 4709" width="32" height="32" rx="8" transform="translate(4337 -22286)" fill="#c09f55"/>
    <g id="icon-instagram" transform="translate(4339 -22284)">
      <path id="Caminho_1741" data-name="Caminho 1741" d="M0,0H28V28H0Z" fill="none"/>
      <path id="instagram-brands" d="M8.1,35.8a4.188,4.188,0,1,0,4.188,4.188A4.181,4.181,0,0,0,8.1,35.8Zm0,6.91a2.723,2.723,0,1,1,2.722-2.723A2.727,2.727,0,0,1,8.1,42.714Zm5.336-7.081a.977.977,0,1,1-.977-.977A.974.974,0,0,1,13.431,35.633Zm2.773.991A4.834,4.834,0,0,0,14.885,33.2a4.865,4.865,0,0,0-3.422-1.319c-1.348-.077-5.39-.077-6.739,0A4.858,4.858,0,0,0,1.3,33.2,4.85,4.85,0,0,0-.018,36.62c-.077,1.349-.077,5.39,0,6.739A4.834,4.834,0,0,0,1.3,46.782,4.871,4.871,0,0,0,4.724,48.1c1.348.077,5.39.077,6.739,0a4.833,4.833,0,0,0,3.422-1.319A4.866,4.866,0,0,0,16.2,43.359C16.281,42.011,16.281,37.973,16.2,36.624Zm-1.742,8.182a2.756,2.756,0,0,1-1.553,1.553c-1.075.426-3.626.328-4.814.328s-3.743.095-4.814-.328a2.756,2.756,0,0,1-1.553-1.553C1.3,43.731,1.4,41.18,1.4,39.992s-.095-3.743.328-4.815a2.756,2.756,0,0,1,1.553-1.553C4.356,33.2,6.907,33.3,8.1,33.3s3.743-.095,4.814.328a2.756,2.756,0,0,1,1.553,1.553c.426,1.075.328,3.626.328,4.815S14.888,43.735,14.462,44.806Z" transform="translate(5.905 -25.991)" fill="#fff"/>
    </g>
  </g>
</svg>
