<svg xmlns="http://www.w3.org/2000/svg" width="234" height="51.987" viewBox="0 0 234 51.987">
  <g id="logo-apex-work-white" transform="translate(-0.88 -0.74)">
    <g id="Layer_1-2-4" data-name="Layer 1-2-4" transform="translate(0.88 0.74)">
      <g id="Grupo_88296" data-name="Grupo 88296">
        <g id="Grupo_88292" data-name="Grupo 88292" transform="translate(54.537 22.041)" style="isolation: isolate">
          <g id="Grupo_88291" data-name="Grupo 88291" style="isolation: isolate">
            <path id="Caminho_122892" data-name="Caminho 122892" d="M58.08,33.115H54.849l-2.23-4.884h-9.86l-2.23,4.884H37.45l8.3-17.535h4.035Zm-6.4-6.887-3.989-8.6-4,8.6h8.009Z" transform="translate(-37.45 -15.246)" fill="#fff"/>
            <path id="Caminho_122893" data-name="Caminho 122893" d="M67.241,20.874a4.529,4.529,0,0,1-.531,2.154,5.333,5.333,0,0,1-1.471,1.729,8.13,8.13,0,0,1-2.791,1.365,15.211,15.211,0,0,1-4.05.455H55.364v6.538H52.33V15.58h6.189a20.319,20.319,0,0,1,3.474.258,9.378,9.378,0,0,1,2.533.834,5.548,5.548,0,0,1,2.017,1.669,4.307,4.307,0,0,1,.713,2.533Zm-3.155.061a2.944,2.944,0,0,0-.41-1.578,2.993,2.993,0,0,0-1.259-1.092,5.931,5.931,0,0,0-1.684-.531,14.793,14.793,0,0,0-2.382-.152h-3V24.59h2.564a14.466,14.466,0,0,0,2.988-.258,4.7,4.7,0,0,0,1.866-.8,3.426,3.426,0,0,0,1.016-1.183,3.2,3.2,0,0,0,.3-1.4Z" transform="translate(-29.759 -15.246)" fill="#fff"/>
            <path id="Caminho_122894" data-name="Caminho 122894" d="M78.6,33.115H63.58V15.58H78.6v2.078H66.614v4.809H78.6v2.078H66.614v6.507H78.6V33.13Z" transform="translate(-23.944 -15.246)" fill="#fff"/>
            <path id="Caminho_122895" data-name="Caminho 122895" d="M94.1,15.58l-7.873,8.661,7.857,8.874h-3.5l-6.219-7.22-6.371,7.22H74.68l7.949-8.768L74.862,15.58h3.489l6.143,7.129,6.28-7.129H94.1Z" transform="translate(-18.206 -15.246)" fill="#fff"/>
            <path id="Caminho_122896" data-name="Caminho 122896" d="M116.559,15.58l-5.931,17.535h-3.413l-4.793-14.562L97.734,33.115H94.4L88.36,15.58h3.11l4.793,14.577,4.718-14.577h3.079l4.763,14.714,4.763-14.714h2.973Z" transform="translate(-11.135 -15.246)" fill="#fff"/>
            <path id="Caminho_122897" data-name="Caminho 122897" d="M125.859,17.711A7.924,7.924,0,0,1,128,20.593a9.512,9.512,0,0,1,.743,3.868,9.587,9.587,0,0,1-.758,3.883,7.7,7.7,0,0,1-2.124,2.852,9.419,9.419,0,0,1-3.337,1.79,14.861,14.861,0,0,1-4.384.607,14.413,14.413,0,0,1-4.369-.607,9.691,9.691,0,0,1-3.352-1.775,7.708,7.708,0,0,1-2.124-2.867,9.512,9.512,0,0,1-.743-3.868,9.568,9.568,0,0,1,.728-3.838,7.818,7.818,0,0,1,2.139-2.912,8.93,8.93,0,0,1,3.352-1.76,14.806,14.806,0,0,1,4.353-.607,14.964,14.964,0,0,1,4.4.622,9.637,9.637,0,0,1,3.322,1.76Zm-.273,6.75A6.85,6.85,0,0,0,123.6,19.2a8.937,8.937,0,0,0-10.891,0,6.872,6.872,0,0,0-1.987,5.264,6.771,6.771,0,0,0,2.017,5.279,8.906,8.906,0,0,0,10.831,0,6.824,6.824,0,0,0,2.017-5.279Z" transform="translate(-1.216 -15.36)" fill="#fff"/>
            <path id="Caminho_122898" data-name="Caminho 122898" d="M142.79,33.115h-3.929l-7.63-6.978h-4.278v6.978H123.92V15.58h6.386a23.8,23.8,0,0,1,3.443.212,8.361,8.361,0,0,1,2.488.743,5.357,5.357,0,0,1,1.942,1.517,3.674,3.674,0,0,1,.7,2.321,4.346,4.346,0,0,1-1.244,3.17,7.911,7.911,0,0,1-3.413,1.926l8.57,7.66ZM135.706,20.51a2.614,2.614,0,0,0-.349-1.335,2.642,2.642,0,0,0-1.138-.986,4.981,4.981,0,0,0-1.562-.47,14.4,14.4,0,0,0-2.124-.137h-3.565V24.2h3.064a13.792,13.792,0,0,0,2.518-.2,4.462,4.462,0,0,0,1.82-.728,3.249,3.249,0,0,0,1.016-1.138,3.653,3.653,0,0,0,.334-1.638Z" transform="translate(7.246 -15.246)" fill="#fff"/>
            <path id="Caminho_122899" data-name="Caminho 122899" d="M155.923,33.115h-3.929l-9.01-7.812-2.26,1.866v5.946H137.69V15.58h3.034v9.147L151.8,15.58h3.671L145.29,23.817l10.649,9.3Z" transform="translate(14.363 -15.246)" fill="#fff"/>
          </g>
        </g>
        <g id="Grupo_88293" data-name="Grupo 88293">
          <path id="Caminho_122900" data-name="Caminho 122900" d="M13.98,15.492,28.694,44.616h6.523L20.351,15.34Z" transform="translate(5.891 6.599)" fill="#fff"/>
          <path id="Caminho_122901" data-name="Caminho 122901" d="M25.351,15.34l-6.371.152L33.694,44.616h6.674Z" transform="translate(8.476 6.599)" fill="#fff"/>
          <path id="Caminho_122902" data-name="Caminho 122902" d="M23.33.74.88,51.955H7.4L26.667,7.085Z" transform="translate(-0.88 -0.74)" fill="#fff"/>
          <path id="Caminho_122903" data-name="Caminho 122903" d="M6.08,44H12.6L21.1,23.518,17.608,16.54Z" transform="translate(1.808 7.219)" fill="#fff"/>
        </g>
        <g id="Grupo_88295" data-name="Grupo 88295" transform="translate(55.388 43.858)" style="isolation: isolate">
          <g id="Grupo_88294" data-name="Grupo 88294" style="isolation: isolate">
            <path id="Caminho_122904" data-name="Caminho 122904" d="M44.319,30.805H41.528v6.9H40.481v-6.9H37.69V29.88h6.644v.925Z" transform="translate(-37.69 -29.743)" fill="#fff"/>
            <path id="Caminho_122905" data-name="Caminho 122905" d="M48.682,34.572a5.461,5.461,0,0,1-.182,1.487,2.535,2.535,0,0,1-.607,1.062,2.432,2.432,0,0,1-.94.576,4,4,0,0,1-1.259.182,3.775,3.775,0,0,1-1.289-.2,2.518,2.518,0,0,1-.925-.576,2.415,2.415,0,0,1-.607-1.047,5.348,5.348,0,0,1-.182-1.5V29.87h1.047V34.6a4.32,4.32,0,0,0,.091,1,2.026,2.026,0,0,0,.288.667,1.483,1.483,0,0,0,.622.516,2.237,2.237,0,0,0,.956.182,2.509,2.509,0,0,0,.956-.167,1.506,1.506,0,0,0,.637-.516,1.974,1.974,0,0,0,.288-.683,4.251,4.251,0,0,0,.091-.956V29.885h1.047v4.687Z" transform="translate(-35.106 -29.749)" fill="#fff"/>
            <path id="Caminho_122906" data-name="Caminho 122906" d="M54.432,37.707h-1.35L50.458,34.6H48.987v3.11H47.94V29.88h2.2a6.465,6.465,0,0,1,1.183.091,2.216,2.216,0,0,1,.849.334,2.048,2.048,0,0,1,.667.683,2.116,2.116,0,0,1,.243,1.031,2.26,2.26,0,0,1-.425,1.411,2.63,2.63,0,0,1-1.168.865l2.943,3.428Zm-2.427-5.628a1.418,1.418,0,0,0-.121-.592.994.994,0,0,0-.394-.44,1.5,1.5,0,0,0-.531-.212,3.529,3.529,0,0,0-.728-.061H49v2.958h1.047a3.6,3.6,0,0,0,.865-.091,1.429,1.429,0,0,0,.622-.319,1.574,1.574,0,0,0,.349-.5,2,2,0,0,0,.106-.728Z" transform="translate(-32.392 -29.743)" fill="#fff"/>
            <path id="Caminho_122907" data-name="Caminho 122907" d="M58.867,37.707H57.577L53.861,30.7v7.008H52.89V29.88H54.5l3.383,6.4v-6.4h.971v7.827Z" transform="translate(-29.833 -29.743)" fill="#fff"/>
            <path id="Caminho_122908" data-name="Caminho 122908" d="M64.485,37.707h-1.35L60.04,34.218l-.774.834v2.655H58.22V29.88h1.047v4.08l3.807-4.08h1.259l-3.5,3.686,3.656,4.156Z" transform="translate(-27.078 -29.743)" fill="#fff"/>
            <path id="Caminho_122909" data-name="Caminho 122909" d="M68.277,37.707H63.12V29.88h5.157v.925H64.167v2.139h4.111v.925H64.167v2.912h4.111Z" transform="translate(-24.545 -29.743)" fill="#fff"/>
            <path id="Caminho_122910" data-name="Caminho 122910" d="M73.5,29.88l-2.761,4.4v3.428H69.691V34.385L66.93,29.88h1.153l2.139,3.5,2.154-3.5h1.107Z" transform="translate(-22.576 -29.743)" fill="#fff"/>
            <path id="Caminho_122911" data-name="Caminho 122911" d="M80.277,35.519a2.206,2.206,0,0,1-.8,1.669,3.411,3.411,0,0,1-.986.531,3.985,3.985,0,0,1-1.35.182,7.545,7.545,0,0,1-1.517-.152,6.756,6.756,0,0,1-1.38-.47v-1.3h.076a4.279,4.279,0,0,0,1.365.758,4.384,4.384,0,0,0,1.456.273,2.614,2.614,0,0,0,1.5-.364,1.144,1.144,0,0,0,.546-.971,1.056,1.056,0,0,0-.258-.774,1.676,1.676,0,0,0-.774-.379,6.482,6.482,0,0,0-.849-.167c-.3-.046-.637-.106-.971-.167a2.858,2.858,0,0,1-1.547-.758,1.943,1.943,0,0,1-.5-1.4,1.907,1.907,0,0,1,.834-1.608,3.377,3.377,0,0,1,2.108-.622,7.783,7.783,0,0,1,1.517.152,5.18,5.18,0,0,1,1.214.394v1.229h-.076a3.694,3.694,0,0,0-1.168-.622,4.575,4.575,0,0,0-1.487-.258,2.407,2.407,0,0,0-1.35.349,1.046,1.046,0,0,0-.5.895,1.16,1.16,0,0,0,.258.774,1.7,1.7,0,0,0,.895.425q.341.068.956.182c.41.076.758.137,1.047.212a2.867,2.867,0,0,1,1.32.7,1.858,1.858,0,0,1,.44,1.3Z" transform="translate(-18.798 -29.785)" fill="#fff"/>
            <path id="Caminho_122912" data-name="Caminho 122912" d="M84.487,37.707H79.33V29.88h5.157v.925H80.377v2.139h4.111v.925H80.377v2.912h4.111Z" transform="translate(-16.167 -29.743)" fill="#fff"/>
            <path id="Caminho_122913" data-name="Caminho 122913" d="M90.292,37.707h-1.35L86.318,34.6H84.847v3.11H83.8V29.88H86a6.465,6.465,0,0,1,1.183.091,2.216,2.216,0,0,1,.849.334,2.048,2.048,0,0,1,.667.683,2.116,2.116,0,0,1,.243,1.031,2.26,2.26,0,0,1-.425,1.411,2.63,2.63,0,0,1-1.168.865l2.943,3.428Zm-2.427-5.628a1.418,1.418,0,0,0-.121-.592,1,1,0,0,0-.394-.44,1.5,1.5,0,0,0-.531-.212,3.529,3.529,0,0,0-.728-.061H84.862v2.958h1.047a3.6,3.6,0,0,0,.865-.091,1.429,1.429,0,0,0,.622-.319,1.574,1.574,0,0,0,.349-.5,2,2,0,0,0,.106-.728Z" transform="translate(-13.856 -29.743)" fill="#fff"/>
            <path id="Caminho_122914" data-name="Caminho 122914" d="M95.239,29.88l-2.852,7.827h-1.4L88.14,29.88h1.107L91.7,36.767l2.457-6.887h1.062Z" transform="translate(-11.613 -29.743)" fill="#fff"/>
            <path id="Caminho_122915" data-name="Caminho 122915" d="M96.474,37.712H93.38v-.8h1.031V30.674H93.38v-.8h3.094v.8H95.443v6.234h1.031Z" transform="translate(-8.904 -29.749)" fill="#fff"/>
            <path id="Caminho_122916" data-name="Caminho 122916" d="M102.792,37.192a5.578,5.578,0,0,0-.516.243,4.344,4.344,0,0,1-.607.228,6.764,6.764,0,0,1-.7.167,4.735,4.735,0,0,1-.834.076,4.6,4.6,0,0,1-1.547-.243,3.129,3.129,0,0,1-1.214-.743,3.368,3.368,0,0,1-.789-1.274,5.335,5.335,0,0,1-.288-1.79,5.171,5.171,0,0,1,.273-1.729,3.478,3.478,0,0,1,.789-1.289,3.147,3.147,0,0,1,1.214-.774,4.359,4.359,0,0,1,1.578-.273,5.1,5.1,0,0,1,1.259.152,7.785,7.785,0,0,1,1.4.531v1.244h-.076a4.547,4.547,0,0,0-1.289-.789,3.7,3.7,0,0,0-1.365-.243,2.726,2.726,0,0,0-1.077.2,2.159,2.159,0,0,0-.849.592,2.657,2.657,0,0,0-.561,1,4.3,4.3,0,0,0-.2,1.4A4.136,4.136,0,0,0,97.62,35.3a2.894,2.894,0,0,0,.576.971,2.225,2.225,0,0,0,.865.576,2.954,2.954,0,0,0,1.031.182,3.948,3.948,0,0,0,1.411-.258,3.8,3.8,0,0,0,1.229-.774h.076v1.214Z" transform="translate(-7.395 -29.79)" fill="#fff"/>
            <path id="Caminho_122917" data-name="Caminho 122917" d="M106.707,37.707H101.55V29.88h5.157v.925H102.6v2.139h4.111v.925H102.6v2.912h4.111Z" transform="translate(-4.681 -29.743)" fill="#fff"/>
            <path id="Caminho_122918" data-name="Caminho 122918" d="M111.847,35.519a2.206,2.206,0,0,1-.8,1.669,3.411,3.411,0,0,1-.986.531,3.985,3.985,0,0,1-1.35.182,7.545,7.545,0,0,1-1.517-.152,6.756,6.756,0,0,1-1.38-.47v-1.3h.076a4.28,4.28,0,0,0,1.365.758,4.384,4.384,0,0,0,1.456.273,2.614,2.614,0,0,0,1.5-.364,1.144,1.144,0,0,0,.546-.971,1.056,1.056,0,0,0-.258-.774,1.676,1.676,0,0,0-.774-.379,6.482,6.482,0,0,0-.849-.167c-.3-.046-.637-.106-.971-.167a2.858,2.858,0,0,1-1.547-.758,1.943,1.943,0,0,1-.5-1.4,1.907,1.907,0,0,1,.834-1.608A3.378,3.378,0,0,1,108.8,29.8a7.783,7.783,0,0,1,1.517.152,5.18,5.18,0,0,1,1.214.394v1.229h-.076a3.694,3.694,0,0,0-1.168-.622,4.575,4.575,0,0,0-1.487-.258,2.407,2.407,0,0,0-1.35.349,1.046,1.046,0,0,0-.5.895,1.161,1.161,0,0,0,.258.774,1.7,1.7,0,0,0,.895.425q.341.068.956.182c.41.076.758.137,1.047.212a2.867,2.867,0,0,1,1.32.7,1.858,1.858,0,0,1,.44,1.3Z" transform="translate(-2.479 -29.785)" fill="#fff"/>
          </g>
        </g>
      </g>
    </g>
    <path id="Caminho_122919" data-name="Caminho 122919" d="M156.494,16a2.924,2.924,0,0,1,1.214,1.214,3.751,3.751,0,0,1,.425,1.82,3.656,3.656,0,0,1-.44,1.805,3.111,3.111,0,0,1-1.214,1.214,3.67,3.67,0,0,1-1.82.425,3.71,3.71,0,0,1-1.82-.425,2.961,2.961,0,0,1-1.229-1.214,3.656,3.656,0,0,1-.44-1.805,3.758,3.758,0,0,1,.44-1.82A2.875,2.875,0,0,1,152.839,16a3.751,3.751,0,0,1,1.82-.425,3.811,3.811,0,0,1,1.835.425Zm.152,5.036a2.64,2.64,0,0,0,.758-1.972,2.841,2.841,0,0,0-.728-2.017,2.64,2.64,0,0,0-1.972-.758,2.841,2.841,0,0,0-2.017.728,2.64,2.64,0,0,0-.758,1.972,2.841,2.841,0,0,0,.728,2.017,2.64,2.64,0,0,0,1.972.758A2.841,2.841,0,0,0,156.646,21.041Zm-1.38-1.562.8,1.5h-.819l-.774-1.441h-.485V20.98h-.774V17.036h1.562c.895,0,1.35.394,1.35,1.2a1.127,1.127,0,0,1-.88,1.244Zm-.076-.758a.618.618,0,0,0,.182-.485.486.486,0,0,0-.167-.425,1.266,1.266,0,0,0-.637-.121h-.576v1.183h.607a.949.949,0,0,0,.592-.152Z" transform="translate(76.747 7.567)" fill="#fff"/>
  </g>
</svg>
