<svg xmlns="http://www.w3.org/2000/svg" width="14.958" height="21.582" viewBox="0 0 14.958 21.582">
  <g id="recrutamento-nome" transform="translate(5572.731 4151.596)">
    <g id="Frame_2" data-name="Frame 2" transform="translate(-5572.731 -4151.596)">
      <g id="Group">
        <g id="Group_2097" data-name="Group 2097">
          <path id="Vector" d="M13,1.392c-.132-.106-.291-.194-.432-.291A.832.832,0,0,0,12.2.854,6.259,6.259,0,0,0,9.135,0a.843.843,0,0,0-.581.238L7.479,1.321,6.4.247A.791.791,0,0,0,5.814.009,6.257,6.257,0,0,0,2.722.881.766.766,0,0,0,2.4,1.1c-.15.1-.308.185-.449.291A4.664,4.664,0,0,0,0,4.986V7.479a4.985,4.985,0,0,0,4.986,4.977H9.972a4.985,4.985,0,0,0,4.986-4.977V4.986A4.7,4.7,0,0,0,13,1.392Zm-3.6.361a5.06,5.06,0,0,1,1.357.291L9.8,3.638,8.659,2.493Zm-3.092.74L5.162,3.638,4.211,2.044a5.424,5.424,0,0,1,1.357-.291Zm6.985,4.986a3.294,3.294,0,0,1-3.321,3.312H4.986A3.288,3.288,0,0,1,1.665,7.479V4.986a2.9,2.9,0,0,1,1.119-2.1l1.5,2.519a.835.835,0,0,0,1.3.167L7.479,3.664l1.9,1.9a.836.836,0,0,0,1.3-.167l1.5-2.519a2.9,2.9,0,0,1,1.119,2.1v2.5Z" transform="translate(0 9.126)" fill="#31513c"/>
          <path id="Vector-2" data-name="Vector" d="M3.735,7.47A3.735,3.735,0,1,0,0,3.735,3.756,3.756,0,0,0,3.735,7.47Zm0-5.814a2.079,2.079,0,1,1-2.07,2.079A2.071,2.071,0,0,1,3.735,1.656Z" transform="translate(3.744)" fill="#31513c"/>
          <path id="Vector-3" data-name="Vector" d="M1.66,0H.832a.832.832,0,1,0,0,1.665H1.66A.832.832,0,0,0,1.66,0Z" transform="translate(9.139 15.768)" fill="#31513c"/>
        </g>
      </g>
    </g>
  </g>
</svg>
