<svg xmlns="http://www.w3.org/2000/svg" width="20" height="20" viewBox="0 0 20 20">
  <g id="recrutamento-email" transform="translate(5145.253 4151)">
    <g id="Frame_3" data-name="Frame 3" transform="translate(-5145.253 -4151)">
      <path id="Vector" d="M1.336,9.122l5.507,3.814L4.507,15.279a.664.664,0,1,0,.936.943l2.514-2.514,1.664,1.157a.664.664,0,0,0,.757,0l1.664-1.157,2.507,2.514a.667.667,0,1,0,.943-.943l-2.336-2.343,5.507-3.814v7.343a2.193,2.193,0,0,1-2.2,2.207H3.571a2.193,2.193,0,0,1-2.2-2.207ZM6.429,7.186a.671.671,0,0,0,0,1.336h7.143a.671.671,0,1,0,0-1.336Zm10-.307,1.686,1.014L16.429,9.065Zm-12.857,0V9.022L1.9,7.893ZM6.343,3.572a.68.68,0,1,0,.086,1.357H10a.679.679,0,1,0,0-1.357Zm6.471-1.079,1.507,1.793H12.814Zm-7.1-1.157h5.793V5a.671.671,0,0,0,.671.671H15.1V10L10,13.5,4.921,10V2.143A.75.75,0,0,1,5.15,1.6a.714.714,0,0,1,.564-.264ZM12.143,0H5.714A2.143,2.143,0,0,0,3.571,2.143V5.357L.364,7.286A.671.671,0,0,0,0,7.857v8.607A3.571,3.571,0,0,0,3.571,20H16.5A3.571,3.571,0,0,0,20,16.464V7.857a.671.671,0,0,0-.393-.607L16.429,5.322v-.15a.65.65,0,0,0-.164-.614L12.693.272A.643.643,0,0,0,12.143,0Z" transform="translate(0 0)" fill="#31513c"/>
    </g>
  </g>
</svg>
