<svg xmlns="http://www.w3.org/2000/svg" width="20.401" height="19.453" viewBox="0 0 20.401 19.453">
  <g id="recrutamento-contacto" transform="translate(5575.453 4073.15)">
    <g id="noun-contacts-1428996" transform="translate(-5653.701 -4093.945)">
      <path id="Caminho_159" data-name="Caminho 159" d="M97.257,23.546H96.221v-.53a2.071,2.071,0,0,0-2.071-2.071H82.23a2.125,2.125,0,0,0-2.119,2.125v.766h-1.2a.518.518,0,1,0,0,1.036h1.2v2.051h-1.2a.518.518,0,1,0,0,1.036h1.2v2.051h-1.2a.518.518,0,1,0,0,1.036h1.2v2.051h-1.2a.518.518,0,1,0,0,1.036h1.2v2.051h-1.2a.518.518,0,1,0,0,1.036h1.2v.766A2.125,2.125,0,0,0,82.23,40.1H94.15a2.071,2.071,0,0,0,2.071-2.071v-.932h1.036A1.243,1.243,0,0,0,98.5,35.852V34.6a1.243,1.243,0,0,0-1.243-1.243H96.221V32.183h1.036A1.243,1.243,0,0,0,98.5,30.941V29.7a1.243,1.243,0,0,0-1.243-1.243H96.221V27.281h1.036A1.243,1.243,0,0,0,98.5,26.038V24.781a1.243,1.243,0,0,0-1.243-1.234Zm-2.071,14.5a1.036,1.036,0,0,1-1.036,1.036H82.23a1.089,1.089,0,0,1-1.083-1.1V23.07a1.09,1.09,0,0,1,1.083-1.079H94.15a1.036,1.036,0,0,1,1.036,1.036Zm2.071-3.631a.207.207,0,0,1,.207.207v1.268a.207.207,0,0,1-.207.207H96.221V34.439Zm0-4.911a.207.207,0,0,1,.207.207v1.268h0a.207.207,0,0,1-.207.207H96.221V29.491Zm.207-3.447h0a.207.207,0,0,1-.207.207H96.221V24.607h1.036a.207.207,0,0,1,.207.207Z" fill="#31513c" stroke="#31513c" stroke-width="0.3"/>
      <path id="Caminho_160" data-name="Caminho 160" d="M218.185,116.256a.518.518,0,0,0,.489-.346l.916-2.606a1.27,1.27,0,0,0-1.2-1.69h-.665a3.935,3.935,0,0,0-3.583,2.3,9.47,9.47,0,0,0,0,7.85,3.935,3.935,0,0,0,3.583,2.3h.663a1.27,1.27,0,0,0,1.2-1.69l-.911-2.6a.522.522,0,0,0-.5-.346l-1.1.021a4.057,4.057,0,0,1,0-3.188Zm-2.046-.485a5.1,5.1,0,0,0-.021,4.072l.025.056a.953.953,0,0,0,.9.578l.781-.014.787,2.249h0a.234.234,0,0,1-.222.313h-.661a2.9,2.9,0,0,1-2.637-1.7,8.435,8.435,0,0,1,0-6.99,2.9,2.9,0,0,1,2.637-1.688h.663a.234.234,0,0,1,.222.313l-.789,2.258h-.829a.942.942,0,0,0-.853.551Z" transform="translate(-129.903 -87.316)" fill="#31513c" stroke="#31513c" stroke-width="0.3"/>
      <path id="Caminho_161" data-name="Caminho 161" d="M387.157,225.144a.518.518,0,0,0-.733.733,1.628,1.628,0,0,1,0,2.3.518.518,0,0,0,.733.733,2.666,2.666,0,0,0,0-3.768Z" transform="translate(-296.486 -196.501)" fill="#31513c" stroke="#31513c" stroke-width="0.3"/>
      <path id="Caminho_162" data-name="Caminho 162" d="M430.039,190.045a.518.518,0,0,0,0,.733,3.469,3.469,0,0,1,0,4.9.518.518,0,0,0,.733.733,4.5,4.5,0,0,0,0-6.365.518.518,0,0,0-.733,0Z" transform="translate(-338.488 -162.7)" fill="#31513c" stroke="#31513c" stroke-width="0.3"/>
    </g>
  </g>
</svg>
