<svg xmlns="http://www.w3.org/2000/svg" width="74" height="74" viewBox="0 0 74 74">
  <g id="eletricista" transform="translate(1745 6111)">
    <rect id="Retângulo_10925" data-name="Retângulo 10925" width="74" height="74" rx="12" transform="translate(-1745 -6111)" fill="#c09f55"/>
    <path id="Caminho_122846" data-name="Caminho 122846" d="M33.269,21.637H44.941a1.8,1.8,0,0,1,1.8,1.8V25.8a.671.671,0,0,1-1.342,0V23.433a.46.46,0,0,0-.454-.454H33.269a.671.671,0,1,1,0-1.342ZM19.031,11.061a8.442,8.442,0,1,1,14.226,6.148,4.076,4.076,0,0,0-1.3,2.481,1.484,1.484,0,0,1-1.467,1.285H24.452a1.484,1.484,0,0,1-1.467-1.285,4.076,4.076,0,0,0-1.3-2.481,8.475,8.475,0,0,1-2.657-6.148Zm8.984,8.572V14.609a5.425,5.425,0,0,1-1.084,0v5.024Zm-7.641-8.572a7.033,7.033,0,0,0,2.235,5.17,5.391,5.391,0,0,1,1.709,3.282.134.134,0,0,0,.136.119h1.136V14.424c0-.046,0-.093,0-.139a4.445,4.445,0,0,1-2.426-2.253c-.583-1.25-.576-2.372.019-3a1.359,1.359,0,0,1,1.542-.307c.942.374,1.942,1.759,2.163,4.524a3.719,3.719,0,0,0,1.175,0c.221-2.765,1.221-4.149,2.163-4.524a1.359,1.359,0,0,1,1.542.307c.595.63.6,1.752.019,3a4.445,4.445,0,0,1-2.426,2.253c0,.046,0,.092,0,.139v5.209h1.136a.134.134,0,0,0,.136-.119,5.387,5.387,0,0,1,1.709-3.282,7.032,7.032,0,0,0,2.235-5.17,7.1,7.1,0,1,0-14.2,0Zm10.194.4c.457-.981.285-1.446.223-1.512a.54.54,0,0,0-.277.151,4.359,4.359,0,0,0-1.046,2.62,2.988,2.988,0,0,0,1.1-1.26ZM24.432,10.1a.533.533,0,0,0-.277-.151c-.061.066-.234.531.223,1.512a2.985,2.985,0,0,0,1.1,1.26,4.357,4.357,0,0,0-1.046-2.62Zm6.859,12.2a.671.671,0,0,0-.671-.671H24.327a.671.671,0,0,0,0,1.342H30.62A.671.671,0,0,0,31.291,22.309ZM25.4,25.16v-.174h-.713a.671.671,0,0,1,0-1.342h5.564a.671.671,0,0,1,0,1.342h-.713v.174a2.069,2.069,0,1,1-4.138,0Zm2.8-.174H26.746v.174a.727.727,0,0,0,1.454,0ZM46.737,37.05v6.14a1.8,1.8,0,0,1-1.8,1.8h-2.8v.872a1.72,1.72,0,0,1-1.718,1.718H38.778v1.191A2.184,2.184,0,0,1,36.6,50.948H18.351a2.184,2.184,0,0,1-2.182-2.182V47.575H14.522A1.72,1.72,0,0,1,12.8,45.857v-.872h-2.8a1.8,1.8,0,0,1-1.8-1.8V37.05a4.854,4.854,0,0,1,0-9.615v-4a1.8,1.8,0,0,1,1.8-1.8H21.678a.671.671,0,1,1,0,1.342H10.005a.454.454,0,0,0-.453.454v4a4.854,4.854,0,0,1,0,9.615v6.14a.454.454,0,0,0,.453.454h2.8v-.872a1.72,1.72,0,0,1,1.718-1.718h1.647V39.863a2.184,2.184,0,0,1,2.182-2.182h8.094l.126-1.037-3.084-.191a.671.671,0,0,1-.509-1.053l4.638-6.668a.671.671,0,0,1,1.217.465l-.457,3.741,3.083.191a.671.671,0,0,1,.509,1.053l-2.433,3.5H36.6a2.184,2.184,0,0,1,2.182,2.182v1.191h1.647a1.72,1.72,0,0,1,1.718,1.718v.872h2.8a.46.46,0,0,0,.454-.454v-6.14a4.85,4.85,0,0,1-2.875-8.118l-.711-1.01a.673.673,0,0,1-.1-.547l.828-3.354a.671.671,0,1,1,1.3.322L43.081,27.4l.481.684a4.854,4.854,0,1,1,3.173,8.966ZM8.88,35.755a3.512,3.512,0,1,0-3.512-3.512A3.516,3.516,0,0,0,8.88,35.755Zm18.484-.406a.672.672,0,0,1,.625.751l-.215,1.762L30.185,34.4l-2.6-.161a.672.672,0,0,1-.625-.751l.215-1.762-2.411,3.466Zm-1.251,5.037.166-1.362H21.492v3.558a.07.07,0,0,0,.067.067H33.387a.07.07,0,0,0,.067-.067V39.023H28.6l-1.27,1.827a.671.671,0,0,1-1.217-.464Zm-9.945,5.847V42.4H14.521a.38.38,0,0,0-.375.375v3.085a.38.38,0,0,0,.375.375h1.647Zm21.267-6.37a.84.84,0,0,0-.839-.839H34.8v3.558a1.411,1.411,0,0,1-1.41,1.41H21.559a1.411,1.411,0,0,1-1.41-1.41V39.023h-1.8a.84.84,0,0,0-.839.839v8.9a.84.84,0,0,0,.839.839H36.6a.84.84,0,0,0,.839-.839v-8.9Zm3.365,2.91a.38.38,0,0,0-.375-.375H38.778v3.836h1.647a.38.38,0,0,0,.375-.375V42.773Zm8.778-10.53a3.512,3.512,0,1,0-3.512,3.512A3.516,3.516,0,0,0,49.578,32.243Zm-1.9-.671H44.457a.671.671,0,0,0,0,1.342h3.217a.671.671,0,0,0,0-1.342ZM9.552,34.088V32.914h1.174a.671.671,0,0,0,0-1.342H9.552V30.4a.671.671,0,0,0-1.342,0v1.174H7.036a.671.671,0,1,0,0,1.342H8.21v1.174a.671.671,0,1,0,1.342,0Z" transform="translate(-1735.473 -6101.784)" fill="#fff"/>
  </g>
</svg>
