<svg xmlns="http://www.w3.org/2000/svg" width="74" height="74" viewBox="0 0 74 74">
  <g id="eletromecanico" transform="translate(1737 5792)">
    <rect id="Retângulo_10925" data-name="Retângulo 10925" width="74" height="74" rx="12" transform="translate(-1737 -5792)" fill="#c09f55"/>
    <g id="Grupo_88202" data-name="Grupo 88202" transform="translate(-1727.187 -5782.828)">
      <path id="Caminho_122847" data-name="Caminho 122847" d="M23.325,6.168,19.967,8.687a.839.839,0,0,0-.336.671v4.2h-.84a.839.839,0,0,0-.84.84v2.519H15.465V14.4a.839.839,0,0,0-.84-.84h-.872V9.778l3.022-2.267a.839.839,0,1,0-1.007-1.343L12.411,8.687a.839.839,0,0,0-.336.671v4.2H11.2a.839.839,0,0,0-.84.84v2.519H7.942V14.4a.839.839,0,0,0-.84-.84H6.2V9.778L9.22,7.511A.839.839,0,1,0,8.213,6.168L4.855,8.687a.839.839,0,0,0-.336.671v4.2h-.84a.839.839,0,0,0-.84.84v3.174A2.5,2.5,0,0,0,2,19.433V42.94a2.521,2.521,0,0,0,2.519,2.519H21.31a2.521,2.521,0,0,0,2.519-2.519V19.433a2.507,2.507,0,0,0-.775-1.81V14.4a.839.839,0,0,0-.84-.84h-.9V9.778l3.022-2.267a.839.839,0,1,0-1.007-1.343ZM12.043,15.235h1.743v1.679H12.043Zm-7.524,0H6.262v1.679H4.519ZM22.149,42.94a.84.84,0,0,1-.84.84H4.519a.84.84,0,0,1-.84-.84V19.433a.84.84,0,0,1,.84-.84H21.31a.84.84,0,0,1,.84.84V42.94Zm-.775-26.026H19.63V15.235h1.744Z" transform="translate(0 0)" fill="#fff" stroke="#c09f55" stroke-width="0.3"/>
      <path id="Caminho_122848" data-name="Caminho 122848" d="M58.443,51.615,55.177,39.1a.842.842,0,0,0-.248-.41l-1.488-1.35A7.26,7.26,0,0,0,51.147,24.8a.84.84,0,0,0-1.089.8v2.376a.842.842,0,0,0,.136.458l.9,1.378v.8L50.01,31.779H48.158L47.077,30.61v-.8l.9-1.378a.84.84,0,0,0,.136-.458V25.6a.84.84,0,0,0-1.088-.8,7.263,7.263,0,0,0-2.144,12.674L43.54,38.688a.838.838,0,0,0-.248.409L40.027,51.615a.839.839,0,0,0,1.082,1.007l3.266-1.108a.839.839,0,0,0,.529-.535l2.929-9,1.4-1.436,1.4,1.436,2.929,9a.839.839,0,0,0,.529.535l3.266,1.108a.839.839,0,0,0,1.082-1.007ZM46.493,40.948a.852.852,0,0,0-.2.327l-2.859,8.785-1.391.472,2.809-10.769,1.965-1.788a.839.839,0,0,0-.175-1.364,5.593,5.593,0,0,1-.214-9.729v.846l-.9,1.378a.84.84,0,0,0-.136.458v1.377a.84.84,0,0,0,.223.57l1.554,1.679a.841.841,0,0,0,.617.269h2.586a.841.841,0,0,0,.617-.269l1.553-1.679a.84.84,0,0,0,.223-.57V29.562a.842.842,0,0,0-.136-.458l-.9-1.378v-.844a5.6,5.6,0,0,1-.041,9.633,5.705,5.705,0,0,1-.679.325.838.838,0,0,0-.334.167L48.7,38.636a.757.757,0,0,0-.233.291Zm8.54,9.111-2.859-8.785a.852.852,0,0,0-.2-.327l-1.534-1.57,1.185-.974c.116-.045.222-.1.33-.145l1.658,1.5,2.809,10.768Z" transform="translate(-6.097 -3.01)" fill="#fff" stroke="#c09f55" stroke-width="0.3"/>
      <path id="Caminho_122849" data-name="Caminho 122849" d="M50.839,37.681a.87.87,0,0,0,.6-.244.843.843,0,0,0-1.192-1.192.967.967,0,0,0-.176.277.7.7,0,0,0-.067.319.88.88,0,0,0,.244.6A.867.867,0,0,0,50.839,37.681Z" transform="translate(-7.702 -4.816)" fill="#fff" stroke="#c09f55" stroke-width="0.3"/>
      <path id="Caminho_122850" data-name="Caminho 122850" d="M18.914,32.037h-4.2v-4.2a.84.84,0,0,0-1.559-.432L8.12,35.8a.84.84,0,0,0,.72,1.272h4.2v4.2A.84.84,0,0,0,14.6,41.7l5.037-8.4a.84.84,0,0,0-.72-1.272Zm-4.2,6.2V36.235a.839.839,0,0,0-.84-.84H10.323l2.715-4.525v2.006a.839.839,0,0,0,.84.84h3.554Z" transform="translate(-0.963 -3.369)" fill="#fff" stroke="#c09f55" stroke-width="0.3"/>
      <path id="Caminho_122851" data-name="Caminho 122851" d="M36.556,41.47h-.84V29.716a.839.839,0,0,0,.814-1.043l-1.259-5.037A.839.839,0,0,0,34.457,23H31.938a.839.839,0,0,0-.814.636l-1.259,5.037a.839.839,0,0,0,.814,1.043V41.47h-.84a.839.839,0,0,0-.84.84v9.235a.839.839,0,0,0,.84.84h6.716a.839.839,0,0,0,.84-.84V42.31A.839.839,0,0,0,36.556,41.47ZM32.594,24.679H33.8l.84,3.358H31.755Zm-.236,5.037h1.679V41.47H32.358Zm3.358,20.989H30.679V43.149h5.037Z" transform="translate(-4.332 -2.728)" fill="#fff" stroke="#c09f55" stroke-width="0.3"/>
    </g>
  </g>
</svg>
