<svg xmlns="http://www.w3.org/2000/svg" width="74" height="74" viewBox="0 0 74 74">
  <g id="mecanica" transform="translate(1739 6291)">
    <rect id="Retângulo_10925" data-name="Retângulo 10925" width="74" height="74" rx="12" transform="translate(-1739 -6291)" fill="#c09f55"/>
    <path id="Caminho_122838" data-name="Caminho 122838" d="M7.323,39.705a.893.893,0,1,1-1.263-1.263.88.88,0,0,1,.631-.261.893.893,0,0,1,.632,1.524Zm-.632-2.54a1.909,1.909,0,1,0,1.351.559,1.909,1.909,0,0,0-1.351-.559ZM2.713,8.682a7.948,7.948,0,0,0,10.322,9.29.494.494,0,0,1,.164-.027.505.505,0,0,1,.36.149L28.227,32.761a.506.506,0,0,1,.12.523,7.947,7.947,0,0,0,9.288,10.322l-4.674-4.675a.505.505,0,0,1-.136-.473l.983-4.272a.508.508,0,0,1,.379-.381l4.274-.982a.507.507,0,0,1,.472.136l4.674,4.675a7.947,7.947,0,0,0-10.322-9.29.507.507,0,0,1-.523-.121L18.093,13.556a.507.507,0,0,1-.12-.523A7.946,7.946,0,0,0,8.685,2.71l4.674,4.675a.5.5,0,0,1,.136.472l-.983,4.272a.507.507,0,0,1-.379.381l-4.271.982a.513.513,0,0,1-.476-.136Zm23.422,6.207a2.292,2.292,0,0,0,.155-.168l4.55,4.547a2.014,2.014,0,0,0-.168.157L28.036,22.06,23.5,17.526l2.637-2.636ZM27.692,7.3l6.354,6.354a.509.509,0,0,0,.375.148l3.2-.092a.492.492,0,0,0,.344-.148l4.678-4.675a7.948,7.948,0,0,1-9.07,9.607,3.268,3.268,0,0,0-1.854.211l-4.866-4.867a3.232,3.232,0,0,0,.21-1.852,7.993,7.993,0,0,1,.631-4.685Zm1.588-.738a7.89,7.89,0,0,1,7.39-2.128l-5.2,5.2L28.855,7.027c.136-.159.276-.314.424-.462ZM9,41.091,22.064,28.032l-4.538-4.538L4.467,36.555a3.047,3.047,0,0,0-.979,2.376A3.345,3.345,0,0,0,4.5,41.06a3.344,3.344,0,0,0,2.13,1.011A3.048,3.048,0,0,0,9,41.092ZM4.123,16.79a8.953,8.953,0,0,0,8.936,2.239l3.751,3.749L3.751,35.837A4.022,4.022,0,0,0,2.477,39a4.348,4.348,0,0,0,1.3,2.781,4.366,4.366,0,0,0,2.781,1.3c.088.005.171.008.256.008a4.077,4.077,0,0,0,2.908-1.282L22.778,28.75l4.51,4.508A8.963,8.963,0,0,0,38.77,44.338a.509.509,0,0,0,.328-.366.515.515,0,0,0-.132-.474L33.88,38.412l.847-3.688,3.687-.848L43.5,38.961a.506.506,0,0,0,.839-.195A8.96,8.96,0,0,0,33.261,27.286l-4.51-4.508,2.636-2.635A2.223,2.223,0,0,1,33.4,19.5a8.962,8.962,0,0,0,9.971-11.74A.515.515,0,0,0,43,7.429a.5.5,0,0,0-.471.135l-5.141,5.141-2.78.079-2.425-2.427,5.808-5.812a.509.509,0,0,0-.193-.839,8.953,8.953,0,0,0-9.239,2.141c-.152.147-.292.3-.428.46L27.924,6.1a.509.509,0,0,0-.427-.144.5.5,0,0,0-.372.25,8.985,8.985,0,0,0-1.067,5.955,2.214,2.214,0,0,1-.643,2.014l-2.637,2.636-3.747-3.749A8.961,8.961,0,0,0,7.551,1.978a.508.508,0,0,0-.193.839L12.444,7.9,11.6,11.592l-3.692.848L2.821,7.355a.506.506,0,0,0-.839.193,8.964,8.964,0,0,0,2.141,9.242Z" transform="translate(-1725.16 -6277.158)" fill="#fff" stroke="#fff" stroke-width="0.5" fill-rule="evenodd"/>
  </g>
</svg>
