<svg xmlns="http://www.w3.org/2000/svg" width="74" height="74" viewBox="0 0 74 74">
  <g id="operador-cnc" transform="translate(1731 5636)">
    <rect id="Retângulo_10925" data-name="Retângulo 10925" width="74" height="74" rx="12" transform="translate(-1731 -5636)" fill="#c09f55"/>
    <g id="Grupo_88203" data-name="Grupo 88203" transform="translate(-1875.078 -10073)">
      <path id="Caminho_122852" data-name="Caminho 122852" d="M60.992,20.913H13.163a.64.64,0,0,1-.64-.64V12.941a.64.64,0,0,1,.64-.64H60.992a.64.64,0,0,1,.64.64v7.332A.659.659,0,0,1,60.992,20.913Zm-47.2-1.267H60.352V13.58H13.79Z" transform="translate(145 4439.699)" fill="#fff" fill-rule="evenodd"/>
      <path id="Caminho_122853" data-name="Caminho 122853" d="M57.521,30.471h-.294a.652.652,0,0,1-.386-.133L53.229,27.5a.658.658,0,0,1-.241-.494V24.152a.64.64,0,0,1,.64-.64H71.385a.64.64,0,0,1,.64.64v2.854a.648.648,0,0,1-.212.481L68.587,30.3a.633.633,0,0,1-.827-.96l3.012-2.626V24.794H54.27V26.7l3.2,2.518h.067a.64.64,0,0,1,.64.64.63.63,0,0,1-.653.614Z" transform="translate(131.047 4435.834)" fill="#fff" fill-rule="evenodd"/>
      <path id="Caminho_122854" data-name="Caminho 122854" d="M64.343,41.94A7.038,7.038,0,1,1,71.381,34.9,7.047,7.047,0,0,1,64.343,41.94Zm0-12.822a5.771,5.771,0,1,0,5.771,5.771A5.773,5.773,0,0,0,64.343,29.118Z" transform="translate(129.559 4434.333)" fill="#fff" fill-rule="evenodd"/>
      <path id="Caminho_122855" data-name="Caminho 122855" d="M32.172,44.732a.625.625,0,0,1-.573-.374.634.634,0,0,1,.32-.839L48.9,35.974a.635.635,0,0,1,.52,1.159L32.439,44.678a1.091,1.091,0,0,1-.266.054Z" transform="translate(138.441 4431.557)" fill="#fff" fill-rule="evenodd"/>
      <path id="Caminho_122856" data-name="Caminho 122856" d="M32.168,52.511a.632.632,0,0,1-.187-1.239l19.54-5.679a.632.632,0,0,1,.358,1.213L32.34,52.485a.412.412,0,0,1-.174.026Z" transform="translate(138.446 4428.229)" fill="#fff" fill-rule="evenodd"/>
      <path id="Caminho_122857" data-name="Caminho 122857" d="M29.717,52.866H25.026a.64.64,0,0,1-.64-.64V43.921a2.974,2.974,0,0,1,2.971-2.971,2.911,2.911,0,0,1,2.106.88,2.943,2.943,0,0,1,.868,2.094V52.1a.47.47,0,0,1,.013.133.628.628,0,0,1-.627.64ZM25.651,51.6h3.412V43.934a1.707,1.707,0,1,0-3.414,0V51.6Z" transform="translate(140.909 4429.82)" fill="#fff" fill-rule="evenodd"/>
      <path id="Caminho_122858" data-name="Caminho 122858" d="M31.4,62.352a.64.64,0,0,1-.64-.64V58.459H20.924v3.253a.64.64,0,0,1-.64.64.63.63,0,0,1-.64-.64V57.819a.64.64,0,0,1,.64-.64h11.1a.64.64,0,0,1,.64.64v3.893a.629.629,0,0,1-.627.64Z" transform="translate(142.545 4424.225)" fill="#fff" fill-rule="evenodd"/>
      <path id="Caminho_122859" data-name="Caminho 122859" d="M30.173,68.409H24.335a.64.64,0,0,1-.64-.64.63.63,0,0,1,.64-.64h5.838a.64.64,0,0,1,0,1.28Z" transform="translate(141.147 4420.794)" fill="#fff" fill-rule="evenodd"/>
      <path id="Caminho_122860" data-name="Caminho 122860" d="M35.871,69.676a3.266,3.266,0,1,1,3.266-3.266A3.271,3.271,0,0,1,35.871,69.676Zm0-5.265a2,2,0,1,0,2,2A2,2,0,0,0,35.871,64.411Z" transform="translate(138.075 4422.168)" fill="#fff" fill-rule="evenodd"/>
      <path id="Caminho_122861" data-name="Caminho 122861" d="M38.616,80.539a.507.507,0,0,1-.2-.041.645.645,0,0,1-.427-.6v-4.08l-2.4-1.932a.658.658,0,0,1-.241-.494V70.22a.64.64,0,0,1,.64-.64.63.63,0,0,1,.64.64V73.1l2.4,1.932a.658.658,0,0,1,.241.494v2.518l1.372-1.786V69.7l-1.625-1.692a.632.632,0,0,1,.906-.88L41.733,69a.612.612,0,0,1,.174.44v7.026a.6.6,0,0,1-.133.386L39.136,80.3a.712.712,0,0,1-.52.241Z" transform="translate(137.13 4420.861)" fill="#fff" fill-rule="evenodd"/>
      <path id="Caminho_122862" data-name="Caminho 122862" d="M66.35,40.137a3.225,3.225,0,1,1,3.225-3.225A3.236,3.236,0,0,1,66.35,40.137Zm0-5.185a1.96,1.96,0,1,0,1.96,1.96A1.964,1.964,0,0,0,66.35,34.952Z" transform="translate(127.552 4432.324)" fill="#fff" fill-rule="evenodd"/>
      <path id="Caminho_122863" data-name="Caminho 122863" d="M23.734,19.175H20.975a.64.64,0,0,1-.64-.64.63.63,0,0,1,.64-.64h2.759a.64.64,0,0,1,0,1.28Z" transform="translate(142.307 4437.771)" fill="#fff" fill-rule="evenodd"/>
      <path id="Caminho_122864" data-name="Caminho 122864" d="M34.369,19.175H31.6a.64.64,0,0,1-.64-.64.63.63,0,0,1,.64-.64h2.772a.64.64,0,0,1,0,1.28Z" transform="translate(138.644 4437.771)" fill="#fff" fill-rule="evenodd"/>
      <path id="Caminho_122865" data-name="Caminho 122865" d="M44.99,19.175H42.218a.64.64,0,0,1-.64-.64.63.63,0,0,1,.64-.64H44.99a.64.64,0,1,1,0,1.28Z" transform="translate(134.981 4437.771)" fill="#fff" fill-rule="evenodd"/>
      <path id="Caminho_122866" data-name="Caminho 122866" d="M55.617,19.175H52.858a.64.64,0,0,1-.64-.64.63.63,0,0,1,.64-.64h2.759a.64.64,0,0,1,0,1.28Z" transform="translate(131.313 4437.771)" fill="#fff" fill-rule="evenodd"/>
      <path id="Caminho_122867" data-name="Caminho 122867" d="M66.252,19.175H63.48a.64.64,0,0,1-.64-.64.63.63,0,0,1,.64-.64h2.772a.64.64,0,0,1,.64.64A.63.63,0,0,1,66.252,19.175Z" transform="translate(127.65 4437.771)" fill="#fff" fill-rule="evenodd"/>
      <path id="Caminho_122868" data-name="Caminho 122868" d="M76.893,19.175H74.121a.64.64,0,0,1-.64-.64.63.63,0,0,1,.64-.64h2.772a.64.64,0,0,1,0,1.28Z" transform="translate(123.98 4437.771)" fill="#fff" fill-rule="evenodd"/>
      <path id="Caminho_122869" data-name="Caminho 122869" d="M18.922,69.676a3.266,3.266,0,1,1,3.266-3.266A3.271,3.271,0,0,1,18.922,69.676Zm0-5.265a2,2,0,1,0,2,2A2,2,0,0,0,18.922,64.411Z" transform="translate(143.92 4422.168)" fill="#fff" fill-rule="evenodd"/>
      <path id="Caminho_122870" data-name="Caminho 122870" d="M16.17,80.531a.629.629,0,0,1-.507-.253l-2.639-3.44a.652.652,0,0,1-.133-.386V69.426a.676.676,0,0,1,.174-.44l1.812-1.879a.62.62,0,0,1,.893-.013.631.631,0,0,1,.013.893l-1.625,1.692v6.56l1.372,1.786V75.507a.61.61,0,0,1,.241-.494l2.4-1.932V70.2a.64.64,0,0,1,.64-.64.63.63,0,0,1,.64.64v3.174a.611.611,0,0,1-.241.494l-2.4,1.932v4.08a.645.645,0,0,1-.427.6.442.442,0,0,1-.212.054Z" transform="translate(144.873 4420.869)" fill="#fff" fill-rule="evenodd"/>
    </g>
  </g>
</svg>
