<svg xmlns="http://www.w3.org/2000/svg" width="74" height="74" viewBox="0 0 74 74">
  <g id="quadrista" transform="translate(1743 5952)">
    <rect id="Retângulo_12093" data-name="Retângulo 12093" width="74" height="74" rx="12" transform="translate(-1743 -5952)" fill="#c09f55"/>
    <g id="Grupo_88201" data-name="Grupo 88201" transform="translate(-1741.527 -5948.488)">
      <path id="Caminho_122839" data-name="Caminho 122839" d="M52.481,46.189H50.713V11.84a.9.9,0,0,0-.9-.9H21.244a.9.9,0,0,0-.9.9V46.189H18.574a2.828,2.828,0,0,0-2.823,2.823v6.125a.9.9,0,1,0,1.8,0V49.012a1.024,1.024,0,0,1,1.019-1.019H52.481A1.024,1.024,0,0,1,53.5,49.012v6.125a.9.9,0,0,0,1.8,0V49.012A2.828,2.828,0,0,0,52.481,46.189Zm-30.335,0V12.741H48.908V46.189Z" transform="translate(0 0)" fill="#fff" stroke="#c09f55" stroke-width="0.5"/>
      <path id="Caminho_122840" data-name="Caminho 122840" d="M50.863,20.828H30.125a.9.9,0,0,0-.9.9v3.031A1.782,1.782,0,0,0,27.5,26.538v5.295a1.8,1.8,0,0,0,1.723,1.786v3.527A1.782,1.782,0,0,0,27.5,38.923v5.295a1.794,1.794,0,0,0,1.723,1.777V48.4a.9.9,0,0,0,.9.9H50.863a.9.9,0,0,0,.9-.9V21.73a.9.9,0,0,0-.9-.9ZM30.125,44.191a.509.509,0,0,1-.063.009H29.3l-.018-5.259h1.642l.018,5.25Zm.8-17.625.018,5.259H29.3l-.018-5.268h1.642ZM49.951,47.5H31.027V46c.054,0,.1-.018.153-.018a.511.511,0,0,0,.162-.027c.063-.018.126-.036.18-.054a.939.939,0,0,0,.144-.054c.063-.027.117-.063.171-.09s.081-.045.126-.072a1.038,1.038,0,0,0,.153-.126.473.473,0,0,0,.1-.09l.135-.162c.027-.036.054-.063.081-.1a2.026,2.026,0,0,0,.108-.189L32.6,44.9a1.781,1.781,0,0,0,.072-.235c0-.036.027-.063.027-.1a1.554,1.554,0,0,0,.036-.352V38.923a1.5,1.5,0,0,0-.036-.352.407.407,0,0,0-.027-.1,2.329,2.329,0,0,0-.072-.235l-.054-.108a2.152,2.152,0,0,0-.108-.2c-.027-.036-.054-.063-.081-.1-.045-.054-.081-.108-.135-.162-.036-.036-.072-.063-.1-.09a1.891,1.891,0,0,0-.153-.126c-.036-.027-.081-.045-.126-.072a1.028,1.028,0,0,0-.171-.09c-.045-.018-.1-.036-.144-.054a1.369,1.369,0,0,0-.18-.054l-.162-.027c-.054,0-.1-.018-.153-.018V33.619c.054,0,.1-.018.153-.018a.511.511,0,0,0,.162-.027l.189-.054c.045-.018.1-.027.144-.045a1.789,1.789,0,0,0,.18-.1c.036-.027.081-.045.117-.072.054-.036.108-.09.162-.135a.959.959,0,0,0,.1-.081c.054-.054.09-.108.135-.162.027-.036.054-.063.081-.1a1.393,1.393,0,0,0,.108-.2c.018-.036.036-.063.054-.1a1.782,1.782,0,0,0,.072-.235c0-.036.027-.063.027-.1a1.554,1.554,0,0,0,.036-.352V26.547a1.5,1.5,0,0,0-.036-.352.407.407,0,0,0-.027-.1,2.331,2.331,0,0,0-.072-.235l-.054-.108a2.152,2.152,0,0,0-.108-.2c-.027-.036-.054-.063-.081-.1-.045-.054-.081-.108-.135-.162-.036-.036-.072-.063-.1-.09a1.89,1.89,0,0,0-.153-.126c-.036-.027-.081-.045-.126-.072a1.028,1.028,0,0,0-.171-.09c-.045-.018-.1-.036-.144-.054a1.37,1.37,0,0,0-.18-.054l-.162-.027c-.054,0-.1-.018-.153-.018V22.632H49.979v24.86Z" transform="translate(-4.967 -4.181)" fill="#fff" stroke="#c09f55" stroke-width="0.5"/>
      <path id="Caminho_122841" data-name="Caminho 122841" d="M39.939,41.762h3.68L42.131,47.67a.9.9,0,0,0,.875,1.119.889.889,0,0,0,.658-.289l7.776-8.4a.9.9,0,0,0,.162-.974.912.912,0,0,0-.83-.541h-3.68l1.479-5.908a.9.9,0,0,0-1.533-.83l-7.776,8.4a.9.9,0,0,0-.162.974.912.912,0,0,0,.83.541Zm8.786-1.371-3.978,4.294.911-3.608A.915.915,0,0,0,45.5,40.3a.814.814,0,0,0-.081-.09.888.888,0,0,0,.541.18h2.778Zm-2.742-4.736-.9,3.608a.915.915,0,0,0,.162.776.813.813,0,0,0,.081.09.888.888,0,0,0-.541-.18H42Z" transform="translate(-9.838 -8.716)" fill="#fff" stroke="#c09f55" stroke-width="0.5"/>
      <path id="Caminho_122842" data-name="Caminho 122842" d="M43.231,18.007h7.063a.9.9,0,1,0,0-1.8H43.231a.9.9,0,0,0,0,1.8Z" transform="translate(-11.235 -2.226)" fill="#fff" stroke="#c09f55" stroke-width="0.5"/>
      <path id="Caminho_122843" data-name="Caminho 122843" d="M27.306,77.516a2.463,2.463,0,1,0,2.463,2.463A2.46,2.46,0,0,0,27.306,77.516Zm0,3.121a.658.658,0,1,1,.658-.658A.662.662,0,0,1,27.306,80.637Z" transform="translate(-3.844 -28.143)" fill="#fff" stroke="#c09f55" stroke-width="0.5"/>
      <path id="Caminho_122844" data-name="Caminho 122844" d="M38.806,77.516a2.463,2.463,0,1,0,2.463,2.463A2.46,2.46,0,0,0,38.806,77.516Zm0,3.121a.658.658,0,1,1,.658-.658A.662.662,0,0,1,38.806,80.637Z" transform="translate(-8.705 -28.143)" fill="#fff" stroke="#c09f55" stroke-width="0.5"/>
      <path id="Caminho_122845" data-name="Caminho 122845" d="M62.71,78.406H49.793a.9.9,0,0,0-.9.9v2.084a.9.9,0,0,0,.9.9H62.71a.9.9,0,0,0,.9-.9V79.308A.9.9,0,0,0,62.71,78.406Zm-.9,2.084H50.695v-.28H61.808Z" transform="translate(-14.008 -28.519)" fill="#fff" stroke="#c09f55" stroke-width="0.5"/>
    </g>
  </g>
</svg>
