<svg xmlns="http://www.w3.org/2000/svg" width="74" height="74" viewBox="0 0 74 74">
  <g id="serralheiro" transform="translate(1745 6447)">
    <rect id="Retângulo_10925" data-name="Retângulo 10925" width="74" height="74" rx="12" transform="translate(-1745 -6447)" fill="#c09f55"/>
    <g id="Grupo_88199" data-name="Grupo 88199" transform="translate(-1732.237 -6717.063)">
      <path id="Caminho_122832" data-name="Caminho 122832" d="M15.353,1.852A1.853,1.853,0,0,0,13.5,3.705V5.558H.529v5.559H13.5V12.97a1.853,1.853,0,0,0,1.853,1.853h3.706a1.853,1.853,0,0,0,1.853-1.853V3.705a1.853,1.853,0,0,0-1.853-1.853Zm0,1.853h3.706V12.97H15.353ZM2.382,7.389H13.5V9.264H2.382Z" transform="translate(0 288.533)" fill="#fff"/>
      <path id="Caminho_122833" data-name="Caminho 122833" d="M2.117,292.5H22.5v1.853H2.117Z" transform="translate(9.53 12.707)" fill="#fff"/>
      <path id="Caminho_122834" data-name="Caminho 122834" d="M1.789,4.762A.926.926,0,0,0,1.3,6.474l7.2,9.484L5.575,22.733h16.89L19.54,15.958l7.2-9.484a.926.926,0,0,0-.489-1.712ZM4.032,6.615H24.007l-6.8,8.612,2.443,5.653H8.394l2.443-5.653Z" transform="translate(2.019 306.005)" fill="#fff"/>
      <path id="Caminho_122835" data-name="Caminho 122835" d="M4.836,300.319a6.258,6.258,0,0,0,9.9-1.98l12.418,4.1a.926.926,0,0,0,.581-1.759l-10.595-3.5,10.595-3.5a.927.927,0,0,0-.581-1.76l-12.418,4.1a6.258,6.258,0,0,0-9.9-1.981.926.926,0,1,0,1.25,1.368,3.143,3.143,0,1,1,0,3.542.927.927,0,1,0-1.25,1.368Z" transform="translate(24.045 8.956)" fill="#fff"/>
      <path id="Caminho_122836" data-name="Caminho 122836" d="M4.652,294.26a.927.927,0,0,0,1.157,1.448L9.3,292.917a.927.927,0,1,0-1.157-1.448Z" transform="translate(22.663 5.288)" fill="#fff"/>
      <path id="Caminho_122837" data-name="Caminho 122837" d="M6.3,291.281l-2.418,5.227a.927.927,0,0,0,1.682.778l2.418-5.227a.926.926,0,0,0-1.682-.778Z" transform="translate(19.608 2.151)" fill="#fff"/>
    </g>
  </g>
</svg>
