<svg xmlns="http://www.w3.org/2000/svg" width="74" height="74" viewBox="0 0 74 74">
  <g id="soldador" transform="translate(5769 5798)">
    <g id="Grupo_88339" data-name="Grupo 88339" transform="translate(-5814 -9539)">
      <rect id="Retângulo_10925" data-name="Retângulo 10925" width="74" height="74" rx="12" transform="translate(45 3741)" fill="#c09f55"/>
      <path id="Caminho_122827" data-name="Caminho 122827" d="M16.687,14.2H13.747a.922.922,0,0,0-.923.923v5.381a.922.922,0,0,0,.923.923h2.941V37.474a6.288,6.288,0,0,0,6.283,6.283H33.414c.007.014.014.028.021.039l1.287,2.228L25.358,51.43a.932.932,0,0,0-.431.56l-1.352,5.044a.923.923,0,0,0,1.783.48l1.252-4.677,9.034-5.215,1.285,2.226a.921.921,0,0,0,1.259.339L56.261,39.752a.923.923,0,0,0,.337-1.262l-3.492-6.052a.923.923,0,0,0-1.259-.337l-1.126.65V21.427h2.941a.922.922,0,0,0,.923-.923V15.124a.922.922,0,0,0-.923-.923H50.721V10.97a6.284,6.284,0,0,0-6.283-6.283H22.971a6.288,6.288,0,0,0-6.283,6.283Zm.777,40.819,2.906,2.906a.923.923,0,1,0,1.305-1.305L18.77,53.715a.923.923,0,0,0-1.305,1.305ZM30.4,53.715l-2.908,2.906A.923.923,0,0,0,28.8,57.927l2.908-2.906A.923.923,0,0,0,30.4,53.715ZM20.225,51.628l1.029,1.781a.922.922,0,0,0,1.6-.923l-1.026-1.781a.923.923,0,1,0-1.6.923Zm15.268-7.955,16.475-9.511,2.572,4.454L38.063,48.127Zm13.382-9.855V10.971a4.441,4.441,0,0,0-4.438-4.438H22.97a4.441,4.441,0,0,0-4.438,4.438v26.5a4.437,4.437,0,0,0,4.438,4.438H34.857ZM46.02,12.686a.921.921,0,0,0-.923-.923H22.31a.922.922,0,0,0-.923.923V23.953a.922.922,0,0,0,.923.923H45.1a.921.921,0,0,0,.923-.923Zm-1.845.923v9.422H23.233V13.609Zm6.546,2.438v3.536h2.018V16.047Zm-34.034,0H14.669v3.536h2.018Z" transform="translate(47.227 3749.429)" fill="#fff" fill-rule="evenodd"/>
    </g>
  </g>
</svg>
