<svg xmlns="http://www.w3.org/2000/svg" width="74" height="74" viewBox="0 0 74 74">
  <g id="tubista" transform="translate(1755 6668)">
    <rect id="Retângulo_10925" data-name="Retângulo 10925" width="74" height="74" rx="12" transform="translate(-1755 -6668)" fill="#c09f55"/>
    <g id="Grupo_88198" data-name="Grupo 88198" transform="translate(-1745.772 -6655)">
      <g id="Grupo_88198-2" data-name="Grupo 88198" transform="translate(2.001 2)">
        <path id="Caminho_122828" data-name="Caminho 122828" d="M53.732,21.017H52.94V8.636a5.057,5.057,0,0,0-5.051-5.051H32.338V2.792A.792.792,0,0,0,31.545,2H26.791A.792.792,0,0,0,26,2.792v10.3a.792.792,0,0,0,.792.792h4.754a.792.792,0,0,0,.792-.792V12.3h10.07a1.818,1.818,0,0,1,1.816,1.816v6.9h-.792a.792.792,0,0,0-.792.792v3.17a.792.792,0,0,0,1.585,0V22.6H52.94v.792a.792.792,0,0,0,1.585,0V21.81A.792.792,0,0,0,53.732,21.017ZM30.753,12.3h-3.17V3.585h3.17Zm15.055,8.716v-6.9a3.4,3.4,0,0,0-3.4-3.4H32.338V5.17h15.55a3.471,3.471,0,0,1,3.467,3.467V21.017Z" transform="translate(-6.984 -2)" fill="#fff"/>
        <path id="Caminho_122829" data-name="Caminho 122829" d="M55.6,32H50.054a.792.792,0,0,0-.792.792v.792H37.376a.792.792,0,0,0,0,1.585H49.261V42.3H35.791a.792.792,0,1,0,0,1.585h13.47v.792a.792.792,0,0,0,.792.792H55.6a.792.792,0,0,0,.792-.792V32.792A.792.792,0,0,0,55.6,32Zm-.792,11.886H50.846v-10.3h3.962Z" transform="translate(-8.852 -8.229)" fill="#fff"/>
        <path id="Caminho_122830" data-name="Caminho 122830" d="M29.165,38.594V31.87a.8.8,0,0,0-1.353-.56l-6.163,6.163-2.241-2.241,6.163-6.163a.8.8,0,0,0-.56-1.353H18.288a.792.792,0,0,0-.56.232l-5.6,5.6a.792.792,0,0,0-.191.811L13.178,38.1,3.16,48.118a3.962,3.962,0,1,0,5.6,5.6L18.782,43.7l3.737,1.246a.79.79,0,0,0,.811-.192l5.6-5.6A.792.792,0,0,0,29.165,38.594Zm-1.585-.328L22.555,43.29l-3.737-1.246a.791.791,0,0,0-.811.192L7.642,52.6A2.377,2.377,0,0,1,4.28,49.239L14.646,38.874a.792.792,0,0,0,.191-.811l-1.245-3.738L18.616,29.3H23.1l-5.371,5.371a.792.792,0,0,0,0,1.12l3.361,3.362a.792.792,0,0,0,1.12,0l5.371-5.371Z" transform="translate(-2.001 -7.339)" fill="#fff"/>
        <path id="Caminho_122831" data-name="Caminho 122831" d="M37.081,30.879c1.25.314,1.275-1.492,1.329-2.332a5.545,5.545,0,0,0-9.678-3.7.792.792,0,1,0,1.179,1.058,3.976,3.976,0,0,1,6.914,2.641C36.936,29.334,36.046,30.457,37.081,30.879Z" transform="translate(-7.509 -6.36)" fill="#fff"/>
      </g>
    </g>
  </g>
</svg>
